<svg xmlns="http://www.w3.org/2000/svg" xmlns:xlink="http://www.w3.org/1999/xlink" width="500" zoomAndPan="magnify" viewBox="0 0 375 374.999991" height="100" preserveAspectRatio="xMidYMid meet" version="1.0"><defs><g/><clipPath id="96b2a9d873"><path d="M 72.304688 152.113281 L 143.082031 152.113281 L 143.082031 222.886719 L 72.304688 222.886719 Z M 72.304688 152.113281 " clip-rule="nonzero"/></clipPath><clipPath id="3d4c4cd378"><path d="M 89.554688 152.113281 L 125.832031 152.113281 C 135.359375 152.113281 143.082031 159.835938 143.082031 169.363281 L 143.082031 205.636719 C 143.082031 215.164062 135.359375 222.886719 125.832031 222.886719 L 89.554688 222.886719 C 80.027344 222.886719 72.304688 215.164062 72.304688 205.636719 L 72.304688 169.363281 C 72.304688 159.835938 80.027344 152.113281 89.554688 152.113281 Z M 89.554688 152.113281 " clip-rule="nonzero"/></clipPath><clipPath id="ae70bbd10d"><path d="M 79 156 L 137 156 L 137 219 L 79 219 Z M 79 156 " clip-rule="nonzero"/></clipPath><clipPath id="981173e9c4"><path d="M 68.246094 203.019531 L 115.34375 145.800781 L 147.136719 171.972656 L 100.042969 229.191406 Z M 68.246094 203.019531 " clip-rule="nonzero"/></clipPath><clipPath id="5cfc3291e3"><path d="M 91.792969 174.410156 C 78.789062 190.210938 75.363281 208.875 84.144531 216.105469 C 92.921875 223.332031 110.585938 216.382812 123.589844 200.582031 C 136.59375 184.78125 140.019531 166.117188 131.242188 158.886719 C 122.460938 151.660156 104.800781 158.609375 91.792969 174.410156 Z M 91.792969 174.410156 " clip-rule="nonzero"/></clipPath><clipPath id="611f86d675"><path d="M 94.25 174.054688 L 121.25 174.054688 L 121.25 201.054688 L 94.25 201.054688 Z M 94.25 174.054688 " clip-rule="nonzero"/></clipPath><clipPath id="f99c50daf3"><path d="M 119.109375 164.605469 L 126.761719 164.605469 L 126.761719 172.257812 L 119.109375 172.257812 Z M 119.109375 164.605469 " clip-rule="nonzero"/></clipPath><clipPath id="665b5a95f7"><path d="M 122.933594 164.605469 C 120.820312 164.605469 119.109375 166.320312 119.109375 168.433594 C 119.109375 170.546875 120.820312 172.257812 122.933594 172.257812 C 125.046875 172.257812 126.761719 170.546875 126.761719 168.433594 C 126.761719 166.320312 125.046875 164.605469 122.933594 164.605469 Z M 122.933594 164.605469 " clip-rule="nonzero"/></clipPath></defs><g clip-path="url(#96b2a9d873)"><g clip-path="url(#3d4c4cd378)"><path fill="#f4f4f4" d="M 72.304688 152.113281 L 143.082031 152.113281 L 143.082031 222.886719 L 72.304688 222.886719 Z M 72.304688 152.113281 " fill-opacity="1" fill-rule="nonzero"/></g></g><g clip-path="url(#ae70bbd10d)"><g clip-path="url(#981173e9c4)"><g clip-path="url(#5cfc3291e3)"><path fill="#000000" d="M 68.246094 203.019531 L 115.34375 145.800781 L 147.136719 171.972656 L 100.042969 229.191406 Z M 68.246094 203.019531 " fill-opacity="1" fill-rule="nonzero"/></g></g></g><g clip-path="url(#611f86d675)"><path fill="#f4f4f4" d="M 121.246094 187.554688 C 111.121094 189.417969 109.609375 190.929688 107.746094 201.054688 C 105.882812 190.929688 104.371094 189.417969 94.25 187.554688 C 104.371094 185.691406 105.882812 184.179688 107.746094 174.054688 C 109.609375 184.179688 111.121094 185.691406 121.246094 187.554688 Z M 121.246094 187.554688 " fill-opacity="1" fill-rule="nonzero"/></g><g clip-path="url(#f99c50daf3)"><g clip-path="url(#665b5a95f7)"><path fill="#f4f4f4" d="M 119.109375 164.605469 L 126.761719 164.605469 L 126.761719 172.257812 L 119.109375 172.257812 Z M 119.109375 164.605469 " fill-opacity="1" fill-rule="nonzero"/></g></g><g fill="#f4f4f4" fill-opacity="1"><g transform="translate(159.033071, 188.503538)"><g><path d="M 11 0.375 C 9.695312 0.375 8.46875 0.148438 7.3125 -0.296875 C 6.15625 -0.753906 5.140625 -1.421875 4.265625 -2.296875 C 3.398438 -3.179688 2.710938 -4.28125 2.203125 -5.59375 C 1.703125 -6.90625 1.453125 -8.425781 1.453125 -10.15625 C 1.453125 -11.851562 1.710938 -13.367188 2.234375 -14.703125 C 2.765625 -16.046875 3.46875 -17.175781 4.34375 -18.09375 C 5.226562 -19.019531 6.257812 -19.722656 7.4375 -20.203125 C 8.613281 -20.691406 9.851562 -20.9375 11.15625 -20.9375 C 12.488281 -20.9375 13.675781 -20.664062 14.71875 -20.125 C 15.769531 -19.59375 16.644531 -18.96875 17.34375 -18.25 L 14.875 -15.296875 C 14.351562 -15.773438 13.800781 -16.164062 13.21875 -16.46875 C 12.644531 -16.78125 11.988281 -16.9375 11.25 -16.9375 C 10.5625 -16.9375 9.90625 -16.78125 9.28125 -16.46875 C 8.664062 -16.164062 8.128906 -15.726562 7.671875 -15.15625 C 7.222656 -14.59375 6.867188 -13.898438 6.609375 -13.078125 C 6.347656 -12.265625 6.21875 -11.34375 6.21875 -10.3125 C 6.21875 -8.1875 6.664062 -6.539062 7.5625 -5.375 C 8.46875 -4.207031 9.675781 -3.625 11.1875 -3.625 C 12.03125 -3.625 12.78125 -3.804688 13.4375 -4.171875 C 14.101562 -4.546875 14.691406 -5.003906 15.203125 -5.546875 L 17.65625 -2.65625 C 15.9375 -0.632812 13.71875 0.375 11 0.375 Z M 11 0.375 "/></g></g></g><g fill="#f4f4f4" fill-opacity="1"><g transform="translate(184.988579, 188.503538)"><g><path d="M 10.78125 0.375 C 9.394531 0.375 8.128906 0.128906 6.984375 -0.359375 C 5.835938 -0.859375 4.851562 -1.566406 4.03125 -2.484375 C 3.21875 -3.410156 2.582031 -4.535156 2.125 -5.859375 C 1.675781 -7.179688 1.453125 -8.6875 1.453125 -10.375 C 1.453125 -12.050781 1.675781 -13.546875 2.125 -14.859375 C 2.582031 -16.179688 3.21875 -17.285156 4.03125 -18.171875 C 4.851562 -19.066406 5.835938 -19.75 6.984375 -20.21875 C 8.128906 -20.695312 9.394531 -20.9375 10.78125 -20.9375 C 12.164062 -20.9375 13.429688 -20.695312 14.578125 -20.21875 C 15.722656 -19.75 16.707031 -19.0625 17.53125 -18.15625 C 18.351562 -17.257812 18.988281 -16.148438 19.4375 -14.828125 C 19.882812 -13.515625 20.109375 -12.03125 20.109375 -10.375 C 20.109375 -8.6875 19.882812 -7.179688 19.4375 -5.859375 C 18.988281 -4.535156 18.351562 -3.410156 17.53125 -2.484375 C 16.707031 -1.566406 15.722656 -0.859375 14.578125 -0.359375 C 13.429688 0.128906 12.164062 0.375 10.78125 0.375 Z M 10.78125 -3.625 C 12.1875 -3.625 13.300781 -4.226562 14.125 -5.4375 C 14.945312 -6.644531 15.359375 -8.289062 15.359375 -10.375 C 15.359375 -12.4375 14.945312 -14.046875 14.125 -15.203125 C 13.300781 -16.359375 12.1875 -16.9375 10.78125 -16.9375 C 9.375 -16.9375 8.257812 -16.359375 7.4375 -15.203125 C 6.625 -14.046875 6.21875 -12.4375 6.21875 -10.375 C 6.21875 -8.289062 6.625 -6.644531 7.4375 -5.4375 C 8.257812 -4.226562 9.375 -3.625 10.78125 -3.625 Z M 10.78125 -3.625 "/></g></g></g><g fill="#f4f4f4" fill-opacity="1"><g transform="translate(214.160665, 188.503538)"><g><path d="M 8.703125 0.375 C 7.359375 0.375 6.019531 0.128906 4.6875 -0.359375 C 3.351562 -0.859375 2.160156 -1.597656 1.109375 -2.578125 L 3.75 -5.765625 C 4.488281 -5.140625 5.300781 -4.625 6.1875 -4.21875 C 7.082031 -3.820312 7.960938 -3.625 8.828125 -3.625 C 9.796875 -3.625 10.515625 -3.800781 10.984375 -4.15625 C 11.460938 -4.519531 11.703125 -5.003906 11.703125 -5.609375 C 11.703125 -5.921875 11.628906 -6.191406 11.484375 -6.421875 C 11.347656 -6.660156 11.148438 -6.867188 10.890625 -7.046875 C 10.628906 -7.222656 10.3125 -7.390625 9.9375 -7.546875 C 9.570312 -7.703125 9.171875 -7.878906 8.734375 -8.078125 L 6.046875 -9.203125 C 5.523438 -9.410156 5.015625 -9.679688 4.515625 -10.015625 C 4.023438 -10.359375 3.582031 -10.753906 3.1875 -11.203125 C 2.800781 -11.660156 2.492188 -12.1875 2.265625 -12.78125 C 2.035156 -13.382812 1.921875 -14.0625 1.921875 -14.8125 C 1.921875 -15.65625 2.097656 -16.445312 2.453125 -17.1875 C 2.816406 -17.9375 3.320312 -18.585938 3.96875 -19.140625 C 4.625 -19.703125 5.394531 -20.140625 6.28125 -20.453125 C 7.175781 -20.773438 8.160156 -20.9375 9.234375 -20.9375 C 10.429688 -20.9375 11.613281 -20.703125 12.78125 -20.234375 C 13.945312 -19.773438 14.972656 -19.101562 15.859375 -18.21875 L 13.5 -15.296875 C 12.820312 -15.816406 12.144531 -16.21875 11.46875 -16.5 C 10.800781 -16.789062 10.054688 -16.9375 9.234375 -16.9375 C 8.441406 -16.9375 7.804688 -16.769531 7.328125 -16.4375 C 6.859375 -16.113281 6.625 -15.660156 6.625 -15.078125 C 6.625 -14.753906 6.703125 -14.484375 6.859375 -14.265625 C 7.015625 -14.046875 7.234375 -13.847656 7.515625 -13.671875 C 7.804688 -13.492188 8.140625 -13.320312 8.515625 -13.15625 C 8.890625 -13 9.300781 -12.828125 9.75 -12.640625 L 12.390625 -11.578125 C 13.648438 -11.066406 14.640625 -10.367188 15.359375 -9.484375 C 16.085938 -8.609375 16.453125 -7.441406 16.453125 -5.984375 C 16.453125 -5.128906 16.28125 -4.316406 15.9375 -3.546875 C 15.59375 -2.773438 15.085938 -2.097656 14.421875 -1.515625 C 13.765625 -0.941406 12.953125 -0.484375 11.984375 -0.140625 C 11.015625 0.203125 9.921875 0.375 8.703125 0.375 Z M 8.703125 0.375 "/></g></g></g><g fill="#f4f4f4" fill-opacity="1"><g transform="translate(239.296261, 188.503538)"><g><path d="M 2.421875 0 L 2.421875 -20.5625 L 7.5 -20.5625 L 10.8125 -11.421875 C 11.019531 -10.804688 11.21875 -10.175781 11.40625 -9.53125 C 11.601562 -8.894531 11.804688 -8.257812 12.015625 -7.625 L 12.140625 -7.625 C 12.347656 -8.257812 12.539062 -8.894531 12.71875 -9.53125 C 12.894531 -10.175781 13.09375 -10.804688 13.3125 -11.421875 L 16.546875 -20.5625 L 21.59375 -20.5625 L 21.59375 0 L 17.375 0 L 17.375 -7.53125 C 17.375 -8.039062 17.394531 -8.597656 17.4375 -9.203125 C 17.476562 -9.816406 17.53125 -10.429688 17.59375 -11.046875 C 17.65625 -11.671875 17.71875 -12.28125 17.78125 -12.875 C 17.84375 -13.476562 17.90625 -14.03125 17.96875 -14.53125 L 17.84375 -14.53125 L 16.171875 -9.65625 L 13.25 -1.796875 L 10.6875 -1.796875 L 7.75 -9.65625 L 6.109375 -14.53125 L 5.984375 -14.53125 C 6.046875 -14.03125 6.109375 -13.476562 6.171875 -12.875 C 6.242188 -12.28125 6.3125 -11.671875 6.375 -11.046875 C 6.4375 -10.429688 6.488281 -9.816406 6.53125 -9.203125 C 6.570312 -8.597656 6.59375 -8.039062 6.59375 -7.53125 L 6.59375 0 Z M 2.421875 0 "/></g></g></g><g fill="#f4f4f4" fill-opacity="1"><g transform="translate(270.928095, 188.503538)"><g><path d="M 2.421875 0 L 2.421875 -20.5625 L 7.0625 -20.5625 L 7.0625 0 Z M 2.421875 0 "/></g></g></g><g fill="#f4f4f4" fill-opacity="1"><g transform="translate(288.022248, 188.503538)"><g><path d="M 11 0.375 C 9.695312 0.375 8.46875 0.148438 7.3125 -0.296875 C 6.15625 -0.753906 5.140625 -1.421875 4.265625 -2.296875 C 3.398438 -3.179688 2.710938 -4.28125 2.203125 -5.59375 C 1.703125 -6.90625 1.453125 -8.425781 1.453125 -10.15625 C 1.453125 -11.851562 1.710938 -13.367188 2.234375 -14.703125 C 2.765625 -16.046875 3.46875 -17.175781 4.34375 -18.09375 C 5.226562 -19.019531 6.257812 -19.722656 7.4375 -20.203125 C 8.613281 -20.691406 9.851562 -20.9375 11.15625 -20.9375 C 12.488281 -20.9375 13.675781 -20.664062 14.71875 -20.125 C 15.769531 -19.59375 16.644531 -18.96875 17.34375 -18.25 L 14.875 -15.296875 C 14.351562 -15.773438 13.800781 -16.164062 13.21875 -16.46875 C 12.644531 -16.78125 11.988281 -16.9375 11.25 -16.9375 C 10.5625 -16.9375 9.90625 -16.78125 9.28125 -16.46875 C 8.664062 -16.164062 8.128906 -15.726562 7.671875 -15.15625 C 7.222656 -14.59375 6.867188 -13.898438 6.609375 -13.078125 C 6.347656 -12.265625 6.21875 -11.34375 6.21875 -10.3125 C 6.21875 -8.1875 6.664062 -6.539062 7.5625 -5.375 C 8.46875 -4.207031 9.675781 -3.625 11.1875 -3.625 C 12.03125 -3.625 12.78125 -3.804688 13.4375 -4.171875 C 14.101562 -4.546875 14.691406 -5.003906 15.203125 -5.546875 L 17.65625 -2.65625 C 15.9375 -0.632812 13.71875 0.375 11 0.375 Z M 11 0.375 "/></g></g></g><g fill="#f4f4f4" fill-opacity="1"><g transform="translate(162.783071, 205.85612)"><g><path d="M 5.125 0.1875 C 4.488281 0.1875 3.910156 0.0703125 3.390625 -0.15625 C 2.867188 -0.394531 2.410156 -0.734375 2.015625 -1.171875 C 1.628906 -1.609375 1.328125 -2.144531 1.109375 -2.78125 C 0.890625 -3.425781 0.78125 -4.15625 0.78125 -4.96875 C 0.78125 -5.757812 0.890625 -6.472656 1.109375 -7.109375 C 1.335938 -7.742188 1.648438 -8.285156 2.046875 -8.734375 C 2.441406 -9.179688 2.90625 -9.519531 3.4375 -9.75 C 3.96875 -9.988281 4.550781 -10.109375 5.1875 -10.109375 C 5.800781 -10.109375 6.335938 -9.984375 6.796875 -9.734375 C 7.253906 -9.492188 7.628906 -9.210938 7.921875 -8.890625 L 7.234375 -8.0625 C 6.972656 -8.351562 6.675781 -8.582031 6.34375 -8.75 C 6.007812 -8.925781 5.628906 -9.015625 5.203125 -9.015625 C 4.734375 -9.015625 4.304688 -8.921875 3.921875 -8.734375 C 3.535156 -8.546875 3.207031 -8.273438 2.9375 -7.921875 C 2.664062 -7.578125 2.457031 -7.15625 2.3125 -6.65625 C 2.164062 -6.164062 2.09375 -5.613281 2.09375 -5 C 2.09375 -4.375 2.164062 -3.8125 2.3125 -3.3125 C 2.457031 -2.8125 2.660156 -2.382812 2.921875 -2.03125 C 3.179688 -1.675781 3.5 -1.398438 3.875 -1.203125 C 4.257812 -1.015625 4.6875 -0.921875 5.15625 -0.921875 C 5.644531 -0.921875 6.070312 -1.019531 6.4375 -1.21875 C 6.800781 -1.414062 7.144531 -1.691406 7.46875 -2.046875 L 8.15625 -1.25 C 7.757812 -0.800781 7.316406 -0.445312 6.828125 -0.1875 C 6.335938 0.0625 5.769531 0.1875 5.125 0.1875 Z M 5.125 0.1875 "/></g></g></g><g fill="#f4f4f4" fill-opacity="1"><g transform="translate(182.247384, 205.85612)"><g><path d="M 3.078125 -5.5625 L 2.609375 -4.046875 L 5.59375 -4.046875 L 5.125 -5.5625 C 4.9375 -6.113281 4.757812 -6.664062 4.59375 -7.21875 C 4.4375 -7.769531 4.28125 -8.332031 4.125 -8.90625 L 4.0625 -8.90625 C 3.90625 -8.332031 3.742188 -7.769531 3.578125 -7.21875 C 3.421875 -6.664062 3.253906 -6.113281 3.078125 -5.5625 Z M 0.046875 0 L 3.40625 -9.9375 L 4.828125 -9.9375 L 8.1875 0 L 6.84375 0 L 5.90625 -3.03125 L 2.28125 -3.03125 L 1.328125 0 Z M 0.046875 0 "/></g></g></g><g fill="#f4f4f4" fill-opacity="1"><g transform="translate(201.303223, 205.85612)"><g><path d="M 1.359375 0 L 1.359375 -9.9375 L 2.625 -9.9375 L 2.625 -1.078125 L 6.96875 -1.078125 L 6.96875 0 Z M 1.359375 0 "/></g></g></g><g fill="#f4f4f4" fill-opacity="1"><g transform="translate(219.481572, 205.85612)"><g><path d="M 1.359375 0 L 1.359375 -9.9375 L 7.078125 -9.9375 L 7.078125 -8.875 L 2.625 -8.875 L 2.625 -5.75 L 6.390625 -5.75 L 6.390625 -4.671875 L 2.625 -4.671875 L 2.625 -1.078125 L 7.234375 -1.078125 L 7.234375 0 Z M 1.359375 0 "/></g></g></g><g fill="#f4f4f4" fill-opacity="1"><g transform="translate(238.28022, 205.85612)"><g><path d="M 1.359375 0 L 1.359375 -9.9375 L 2.671875 -9.9375 L 6.25 -3.6875 L 7.328125 -1.640625 L 7.390625 -1.640625 C 7.359375 -2.140625 7.320312 -2.660156 7.28125 -3.203125 C 7.25 -3.742188 7.234375 -4.273438 7.234375 -4.796875 L 7.234375 -9.9375 L 8.4375 -9.9375 L 8.4375 0 L 7.125 0 L 3.53125 -6.25 L 2.453125 -8.296875 L 2.390625 -8.296875 C 2.429688 -7.796875 2.46875 -7.285156 2.5 -6.765625 C 2.539062 -6.242188 2.5625 -5.71875 2.5625 -5.1875 L 2.5625 0 Z M 1.359375 0 "/></g></g></g><g fill="#f4f4f4" fill-opacity="1"><g transform="translate(258.894335, 205.85612)"><g><path d="M 1.359375 0 L 1.359375 -9.9375 L 3.84375 -9.9375 C 5.375 -9.9375 6.539062 -9.507812 7.34375 -8.65625 C 8.144531 -7.8125 8.546875 -6.597656 8.546875 -5.015625 C 8.546875 -4.222656 8.441406 -3.515625 8.234375 -2.890625 C 8.035156 -2.273438 7.738281 -1.753906 7.34375 -1.328125 C 6.945312 -0.898438 6.460938 -0.570312 5.890625 -0.34375 C 5.316406 -0.113281 4.65625 0 3.90625 0 Z M 2.625 -1.03125 L 3.75 -1.03125 C 4.914062 -1.03125 5.785156 -1.378906 6.359375 -2.078125 C 6.941406 -2.773438 7.234375 -3.753906 7.234375 -5.015625 C 7.234375 -6.273438 6.941406 -7.238281 6.359375 -7.90625 C 5.785156 -8.570312 4.914062 -8.90625 3.75 -8.90625 L 2.625 -8.90625 Z M 2.625 -1.03125 "/></g></g></g><g fill="#f4f4f4" fill-opacity="1"><g transform="translate(279.024319, 205.85612)"><g><path d="M 3.078125 -5.5625 L 2.609375 -4.046875 L 5.59375 -4.046875 L 5.125 -5.5625 C 4.9375 -6.113281 4.757812 -6.664062 4.59375 -7.21875 C 4.4375 -7.769531 4.28125 -8.332031 4.125 -8.90625 L 4.0625 -8.90625 C 3.90625 -8.332031 3.742188 -7.769531 3.578125 -7.21875 C 3.421875 -6.664062 3.253906 -6.113281 3.078125 -5.5625 Z M 0.046875 0 L 3.40625 -9.9375 L 4.828125 -9.9375 L 8.1875 0 L 6.84375 0 L 5.90625 -3.03125 L 2.28125 -3.03125 L 1.328125 0 Z M 0.046875 0 "/></g></g></g><g fill="#f4f4f4" fill-opacity="1"><g transform="translate(298.080161, 205.85612)"><g><path d="M 1.359375 0 L 1.359375 -9.9375 L 4.46875 -9.9375 C 4.96875 -9.9375 5.429688 -9.882812 5.859375 -9.78125 C 6.296875 -9.6875 6.664062 -9.53125 6.96875 -9.3125 C 7.28125 -9.09375 7.519531 -8.804688 7.6875 -8.453125 C 7.863281 -8.097656 7.953125 -7.660156 7.953125 -7.140625 C 7.953125 -6.367188 7.75 -5.75 7.34375 -5.28125 C 6.9375 -4.820312 6.390625 -4.503906 5.703125 -4.328125 L 8.234375 0 L 6.8125 0 L 4.421875 -4.1875 L 2.625 -4.1875 L 2.625 0 Z M 2.625 -5.21875 L 4.28125 -5.21875 C 5.0625 -5.21875 5.65625 -5.375 6.0625 -5.6875 C 6.476562 -6.007812 6.6875 -6.492188 6.6875 -7.140625 C 6.6875 -7.796875 6.476562 -8.253906 6.0625 -8.515625 C 5.65625 -8.785156 5.0625 -8.921875 4.28125 -8.921875 L 2.625 -8.921875 Z M 2.625 -5.21875 "/></g></g></g></svg>