<svg xmlns="http://www.w3.org/2000/svg" xmlns:xlink="http://www.w3.org/1999/xlink" width="354" zoomAndPan="magnify" viewBox="0 0 265.5 62.999997" height="84" preserveAspectRatio="xMidYMid meet" version="1.0"><defs><g/><clipPath id="25d2217dd9"><path d="M 35.171875 10.171875 L 77.949219 10.171875 L 77.949219 52.949219 L 35.171875 52.949219 Z M 35.171875 10.171875 " clip-rule="nonzero"/></clipPath><clipPath id="94c73ef103"><path d="M 38.171875 10.171875 L 74.949219 10.171875 C 76.605469 10.171875 77.949219 11.515625 77.949219 13.171875 L 77.949219 49.949219 C 77.949219 51.605469 76.605469 52.949219 74.949219 52.949219 L 38.171875 52.949219 C 36.515625 52.949219 35.171875 51.605469 35.171875 49.949219 L 35.171875 13.171875 C 35.171875 11.515625 36.515625 10.171875 38.171875 10.171875 Z M 38.171875 10.171875 " clip-rule="nonzero"/></clipPath><clipPath id="262238283d"><path d="M 39 12 L 74 12 L 74 51 L 39 51 Z M 39 12 " clip-rule="nonzero"/></clipPath><clipPath id="593d95b7f2"><path d="M 32.722656 40.9375 L 61.1875 6.355469 L 80.40625 22.171875 L 51.9375 56.753906 Z M 32.722656 40.9375 " clip-rule="nonzero"/></clipPath><clipPath id="94df84dbc2"><path d="M 46.953125 23.644531 C 39.09375 33.195312 37.023438 44.476562 42.332031 48.84375 C 47.636719 53.214844 58.3125 49.011719 66.171875 39.464844 C 74.03125 29.914062 76.101562 18.632812 70.796875 14.265625 C 65.488281 9.894531 54.816406 14.097656 46.953125 23.644531 Z M 46.953125 23.644531 " clip-rule="nonzero"/></clipPath><clipPath id="ca26877ef6"><path d="M 48.4375 23.433594 L 63.996094 23.433594 L 63.996094 38.996094 L 48.4375 38.996094 Z M 48.4375 23.433594 " clip-rule="nonzero"/></clipPath><clipPath id="e9410ee4d6"><path d="M 63.460938 17.722656 L 68.085938 17.722656 L 68.085938 22.347656 L 63.460938 22.347656 Z M 63.460938 17.722656 " clip-rule="nonzero"/></clipPath><clipPath id="ad1cd25463"><path d="M 65.773438 17.722656 C 64.496094 17.722656 63.460938 18.757812 63.460938 20.035156 C 63.460938 21.3125 64.496094 22.347656 65.773438 22.347656 C 67.050781 22.347656 68.085938 21.3125 68.085938 20.035156 C 68.085938 18.757812 67.050781 17.722656 65.773438 17.722656 Z M 65.773438 17.722656 " clip-rule="nonzero"/></clipPath></defs><g clip-path="url(#25d2217dd9)"><g clip-path="url(#94c73ef103)"><path fill="#f4f4f4" d="M 35.171875 10.171875 L 77.949219 10.171875 L 77.949219 52.949219 L 35.171875 52.949219 Z M 35.171875 10.171875 " fill-opacity="1" fill-rule="nonzero"/></g></g><g clip-path="url(#262238283d)"><g clip-path="url(#593d95b7f2)"><g clip-path="url(#94df84dbc2)"><path fill="#000000" d="M 32.722656 40.9375 L 61.1875 6.355469 L 80.40625 22.171875 L 51.9375 56.753906 Z M 32.722656 40.9375 " fill-opacity="1" fill-rule="nonzero"/></g></g></g><g clip-path="url(#ca26877ef6)"><path fill="#f4f4f4" d="M 63.996094 31.214844 C 58.160156 32.289062 57.289062 33.160156 56.214844 38.992188 C 55.140625 33.160156 54.269531 32.289062 48.4375 31.214844 C 54.269531 30.140625 55.140625 29.269531 56.214844 23.433594 C 57.289062 29.269531 58.160156 30.140625 63.996094 31.214844 Z M 63.996094 31.214844 " fill-opacity="1" fill-rule="nonzero"/></g><g clip-path="url(#e9410ee4d6)"><g clip-path="url(#ad1cd25463)"><path fill="#f4f4f4" d="M 63.460938 17.722656 L 68.085938 17.722656 L 68.085938 22.347656 L 63.460938 22.347656 Z M 63.460938 17.722656 " fill-opacity="1" fill-rule="nonzero"/></g></g><path stroke-linecap="butt" transform="matrix(0.75, 0, 0, 0.75, 82.763519, 3.191245)" fill="none" stroke-linejoin="miter" d="M 30.601768 44.505425 C 28.856977 44.505425 27.205935 44.203342 25.653851 43.599175 C 24.106976 42.995009 22.747601 42.099175 21.580935 40.916883 C 20.414268 39.734592 19.487184 38.265842 18.810101 36.505425 C 18.133018 34.745008 17.799684 32.70855 17.799684 30.401258 C 17.799684 28.120008 18.148643 26.083549 18.851768 24.297091 C 19.554893 22.510633 20.502809 21.000216 21.685101 19.760632 C 22.867393 18.526257 24.242393 17.583549 25.820518 16.937716 C 27.398643 16.281466 29.06531 15.958549 30.810102 15.958549 C 32.580935 15.958549 34.174685 16.317924 35.580935 17.036674 C 36.992394 17.755424 38.15906 18.588757 39.086144 19.547091 L 35.789269 23.515841 C 35.086144 22.870008 34.34656 22.343966 33.570518 21.937716 C 32.799685 21.526258 31.924685 21.317924 30.935102 21.317924 C 30.00281 21.317924 29.122602 21.526258 28.294477 21.937716 C 27.461143 22.343966 26.742393 22.927299 26.138226 23.687716 C 25.53406 24.442924 25.054893 25.375216 24.705935 26.474174 C 24.356976 27.573133 24.179893 28.812716 24.179893 30.192925 C 24.179893 33.031466 24.78406 35.234592 25.992393 36.8023 C 27.205935 38.3648 28.820518 39.14605 30.851768 39.14605 C 31.976768 39.14605 32.981977 38.901258 33.872602 38.411675 C 34.758019 37.916883 35.539269 37.3023 36.211144 36.567925 L 39.513227 40.453342 C 37.200727 43.156467 34.231977 44.505425 30.601768 44.505425 Z M 61.169478 44.505425 C 59.304895 44.505425 57.606978 44.1773 56.075728 43.515842 C 54.544478 42.854384 53.226769 41.906467 52.127811 40.672092 C 51.034061 39.4273 50.179894 37.916883 49.570519 36.14605 C 48.966353 34.370008 48.664269 32.354383 48.664269 30.104383 C 48.664269 27.854383 48.966353 25.849174 49.570519 24.088758 C 50.179894 22.333549 51.034061 20.854382 52.127811 19.656466 C 53.226769 18.463757 54.544478 17.547091 56.075728 16.916882 C 57.606978 16.276257 59.304895 15.958549 61.169478 15.958549 C 63.023645 15.958549 64.716353 16.276257 66.252812 16.916882 C 67.78927 17.547091 69.106979 18.468966 70.200729 19.677299 C 71.299687 20.890841 72.153854 22.375216 72.75802 24.130424 C 73.362187 25.890841 73.66427 27.880424 73.66427 30.104383 C 73.66427 32.354383 73.362187 34.370008 72.75802 36.14605 C 72.153854 37.916883 71.299687 39.4273 70.200729 40.672092 C 69.106979 41.906467 67.78927 42.854384 66.252812 43.515842 C 64.716353 44.1773 63.023645 44.505425 61.169478 44.505425 Z M 61.169478 39.14605 C 63.049687 39.14605 64.544478 38.338758 65.643437 36.718967 C 66.742395 35.099175 67.294478 32.890841 67.294478 30.104383 C 67.294478 27.343966 66.742395 25.192924 65.643437 23.646049 C 64.544478 22.093966 63.049687 21.317924 61.169478 21.317924 C 59.278853 21.317924 57.784061 22.093966 56.685103 23.646049 C 55.591353 25.192924 55.044478 27.343966 55.044478 30.104383 C 55.044478 32.890841 55.591353 35.099175 56.685103 36.718967 C 57.784061 38.338758 59.278853 39.14605 61.169478 39.14605 Z M 93.54448 44.505425 C 91.747605 44.505425 89.95073 44.1773 88.164271 43.515842 C 86.377813 42.854384 84.778854 41.8648 83.367396 40.536675 L 86.914271 36.265842 C 87.903854 37.1148 88.997604 37.8023 90.195521 38.338758 C 91.393438 38.875217 92.565313 39.14605 93.721563 39.14605 C 95.01323 39.14605 95.976771 38.906467 96.60698 38.432508 C 97.247605 37.953342 97.565313 37.3023 97.565313 36.484592 C 97.565313 36.057508 97.471563 35.687717 97.289272 35.380425 C 97.101772 35.073133 96.836147 34.8023 96.48198 34.567925 C 96.133022 34.323133 95.711146 34.099175 95.216355 33.885633 C 94.726771 33.672091 94.190313 33.437716 93.596563 33.182508 L 89.997605 31.666883 C 89.299688 31.385633 88.617396 31.02105 87.955938 30.578341 C 87.299688 30.125216 86.705938 29.593966 86.185104 28.9898 C 85.664271 28.385633 85.247604 27.677299 84.935104 26.875216 C 84.627813 26.073133 84.471563 25.161674 84.471563 24.151258 C 84.471563 23.026258 84.711146 21.963758 85.185104 20.968966 C 85.664271 19.963757 86.341354 19.088757 87.216354 18.349174 C 88.086146 17.599174 89.122604 17.015841 90.320521 16.593966 C 91.51323 16.172091 92.830938 15.958549 94.268438 15.958549 C 95.877813 15.958549 97.461147 16.265841 99.018438 16.885632 C 100.580938 17.505424 101.95073 18.406466 103.133022 19.593966 L 99.971563 23.515841 C 99.070522 22.812716 98.16948 22.271049 97.268438 21.896049 C 96.367397 21.510633 95.367396 21.317924 94.268438 21.317924 C 93.195521 21.317924 92.341355 21.536674 91.711146 21.979383 C 91.080938 22.411674 90.76323 23.021049 90.76323 23.812716 C 90.76323 24.239799 90.867396 24.599174 91.080938 24.896049 C 91.29448 25.192924 91.591355 25.458549 91.966355 25.698133 C 92.346563 25.932508 92.789271 26.156466 93.299688 26.370008 C 93.804896 26.583549 94.35698 26.817924 94.95073 27.073133 L 98.492397 28.505425 C 100.179897 29.1773 101.502813 30.104383 102.476772 31.286675 C 103.45073 32.468966 103.940314 34.031466 103.940314 35.979383 C 103.940314 37.135633 103.705939 38.224175 103.237189 39.255425 C 102.778855 40.281467 102.101772 41.182508 101.216355 41.95855 C 100.330938 42.729384 99.237188 43.349175 97.940313 43.812717 C 96.643438 44.276259 95.179896 44.505425 93.54448 44.505425 Z M 114.909064 44.000217 L 114.909064 16.463757 L 121.716356 16.463757 L 126.148648 28.70855 C 126.429898 29.526258 126.700731 30.3648 126.950731 31.224175 C 127.20594 32.08355 127.476773 32.937716 127.758023 33.781466 L 127.919481 33.781466 C 128.20594 32.937716 128.466356 32.08355 128.70594 31.224175 C 128.945523 30.3648 129.20594 29.526258 129.48719 28.70855 L 133.83094 16.463757 L 140.591357 16.463757 L 140.591357 44.000217 L 134.935107 44.000217 L 134.935107 33.906466 C 134.935107 33.234591 134.961148 32.484591 135.013232 31.666883 C 135.070523 30.849175 135.138232 30.031466 135.221565 29.203341 C 135.310107 28.375216 135.398648 27.557508 135.476773 26.750216 C 135.560107 25.948133 135.648648 25.208549 135.73719 24.536674 L 135.560107 24.536674 L 133.325732 31.08355 L 129.398648 41.599175 L 125.981981 41.599175 L 122.054898 31.08355 L 119.856981 24.536674 L 119.685106 24.536674 C 119.773648 25.208549 119.856981 25.948133 119.940314 26.750216 C 120.023648 27.557508 120.106981 28.375216 120.190314 29.203341 C 120.278856 30.031466 120.351773 30.849175 120.403856 31.666883 C 120.461148 32.484591 120.487189 33.234591 120.487189 33.906466 L 120.487189 44.000217 Z M 153.372608 44.000217 L 153.372608 16.463757 L 159.591358 16.463757 L 159.591358 44.000217 Z M 183.872609 44.505425 C 182.127817 44.505425 180.476776 44.203342 178.924692 43.599175 C 177.377817 42.995009 176.018442 42.099175 174.851775 40.916883 C 173.6799 39.734592 172.758025 38.265842 172.075734 36.505425 C 171.403859 34.745008 171.065317 32.70855 171.065317 30.401258 C 171.065317 28.120008 171.419484 26.083549 172.1174 24.297091 C 172.825734 22.510633 173.77365 21.000216 174.955942 19.760632 C 176.138234 18.526257 177.513234 17.583549 179.086151 16.937716 C 180.669484 16.281466 182.330942 15.958549 184.075734 15.958549 C 185.851776 15.958549 187.440318 16.317924 188.851776 17.036674 C 190.263234 17.755424 191.429901 18.588757 192.356985 19.547091 L 189.060109 23.515841 C 188.356984 22.870008 187.617401 22.343966 186.841359 21.937716 C 186.070526 21.526258 185.190318 21.317924 184.200734 21.317924 C 183.273651 21.317924 182.393442 21.526258 181.560109 21.937716 C 180.731984 22.343966 180.013234 22.927299 179.409067 23.687716 C 178.804901 24.442924 178.325734 25.375216 177.976775 26.474174 C 177.622609 27.573133 177.450734 28.812716 177.450734 30.192925 C 177.450734 33.031466 178.054901 35.234592 179.263234 36.8023 C 180.471567 38.3648 182.091359 39.14605 184.117401 39.14605 C 185.247609 39.14605 186.252818 38.901258 187.138234 38.411675 C 188.028859 37.916883 188.804901 37.3023 189.481984 36.567925 L 192.77886 40.453342 C 190.471568 43.156467 187.502818 44.505425 183.872609 44.505425 Z M 183.872609 44.505425 " stroke="#f4f4f4" stroke-width="1.583981" stroke-opacity="1" stroke-miterlimit="4"/><g fill="#f4f4f4" fill-opacity="1"><g transform="translate(89.605676, 52.939456)"><g><path d="M 5.140625 0.1875 C 4.515625 0.1875 3.9375 0.0703125 3.40625 -0.15625 C 2.875 -0.394531 2.410156 -0.734375 2.015625 -1.171875 C 1.628906 -1.617188 1.328125 -2.160156 1.109375 -2.796875 C 0.898438 -3.441406 0.796875 -4.171875 0.796875 -4.984375 C 0.796875 -5.785156 0.90625 -6.503906 1.125 -7.140625 C 1.34375 -7.785156 1.648438 -8.328125 2.046875 -8.765625 C 2.441406 -9.210938 2.90625 -9.554688 3.4375 -9.796875 C 3.976562 -10.035156 4.570312 -10.15625 5.21875 -10.15625 C 5.820312 -10.15625 6.351562 -10.03125 6.8125 -9.78125 C 7.28125 -9.53125 7.660156 -9.242188 7.953125 -8.921875 L 7.265625 -8.109375 C 7.003906 -8.390625 6.707031 -8.613281 6.375 -8.78125 C 6.039062 -8.957031 5.660156 -9.046875 5.234375 -9.046875 C 4.753906 -9.046875 4.320312 -8.953125 3.9375 -8.765625 C 3.550781 -8.578125 3.21875 -8.304688 2.9375 -7.953125 C 2.664062 -7.609375 2.457031 -7.1875 2.3125 -6.6875 C 2.164062 -6.1875 2.09375 -5.628906 2.09375 -5.015625 C 2.09375 -4.390625 2.164062 -3.820312 2.3125 -3.3125 C 2.457031 -2.8125 2.660156 -2.382812 2.921875 -2.03125 C 3.191406 -1.675781 3.515625 -1.398438 3.890625 -1.203125 C 4.273438 -1.015625 4.707031 -0.921875 5.1875 -0.921875 C 5.664062 -0.921875 6.085938 -1.019531 6.453125 -1.21875 C 6.828125 -1.414062 7.175781 -1.691406 7.5 -2.046875 L 8.1875 -1.265625 C 7.800781 -0.804688 7.359375 -0.445312 6.859375 -0.1875 C 6.359375 0.0625 5.785156 0.1875 5.140625 0.1875 Z M 5.140625 0.1875 "/></g></g></g><g fill="#f4f4f4" fill-opacity="1"><g transform="translate(109.156713, 52.939456)"><g><path d="M 3.09375 -5.578125 L 2.609375 -4.0625 L 5.609375 -4.0625 L 5.140625 -5.578125 C 4.953125 -6.140625 4.773438 -6.695312 4.609375 -7.25 C 4.453125 -7.800781 4.296875 -8.363281 4.140625 -8.9375 L 4.078125 -8.9375 C 3.921875 -8.363281 3.757812 -7.800781 3.59375 -7.25 C 3.4375 -6.695312 3.269531 -6.140625 3.09375 -5.578125 Z M 0.046875 0 L 3.421875 -9.96875 L 4.84375 -9.96875 L 8.21875 0 L 6.875 0 L 5.921875 -3.046875 L 2.296875 -3.046875 L 1.34375 0 Z M 0.046875 0 "/></g></g></g><g fill="#f4f4f4" fill-opacity="1"><g transform="translate(128.297376, 52.939456)"><g><path d="M 1.375 0 L 1.375 -9.96875 L 2.625 -9.96875 L 2.625 -1.078125 L 7 -1.078125 L 7 0 Z M 1.375 0 "/></g></g></g><g fill="#f4f4f4" fill-opacity="1"><g transform="translate(146.556486, 52.939456)"><g><path d="M 1.375 0 L 1.375 -9.96875 L 7.109375 -9.96875 L 7.109375 -8.90625 L 2.625 -8.90625 L 2.625 -5.78125 L 6.421875 -5.78125 L 6.421875 -4.703125 L 2.625 -4.703125 L 2.625 -1.078125 L 7.265625 -1.078125 L 7.265625 0 Z M 1.375 0 "/></g></g></g><g fill="#f4f4f4" fill-opacity="1"><g transform="translate(165.438767, 52.939456)"><g><path d="M 1.375 0 L 1.375 -9.96875 L 2.671875 -9.96875 L 6.28125 -3.703125 L 7.359375 -1.640625 L 7.421875 -1.640625 C 7.390625 -2.148438 7.351562 -2.675781 7.3125 -3.21875 C 7.28125 -3.757812 7.265625 -4.289062 7.265625 -4.8125 L 7.265625 -9.96875 L 8.46875 -9.96875 L 8.46875 0 L 7.15625 0 L 3.546875 -6.28125 L 2.46875 -8.328125 L 2.40625 -8.328125 C 2.445312 -7.828125 2.484375 -7.3125 2.515625 -6.78125 C 2.546875 -6.257812 2.5625 -5.738281 2.5625 -5.21875 L 2.5625 0 Z M 1.375 0 "/></g></g></g><g fill="#f4f4f4" fill-opacity="1"><g transform="translate(186.144951, 52.939456)"><g><path d="M 1.375 0 L 1.375 -9.96875 L 3.859375 -9.96875 C 5.398438 -9.96875 6.570312 -9.539062 7.375 -8.6875 C 8.175781 -7.84375 8.578125 -6.625 8.578125 -5.03125 C 8.578125 -4.238281 8.472656 -3.53125 8.265625 -2.90625 C 8.066406 -2.28125 7.769531 -1.753906 7.375 -1.328125 C 6.976562 -0.898438 6.488281 -0.570312 5.90625 -0.34375 C 5.332031 -0.113281 4.671875 0 3.921875 0 Z M 2.625 -1.03125 L 3.765625 -1.03125 C 4.929688 -1.03125 5.804688 -1.378906 6.390625 -2.078125 C 6.972656 -2.773438 7.265625 -3.757812 7.265625 -5.03125 C 7.265625 -6.300781 6.972656 -7.269531 6.390625 -7.9375 C 5.804688 -8.601562 4.929688 -8.9375 3.765625 -8.9375 L 2.625 -8.9375 Z M 2.625 -1.03125 "/></g></g></g><g fill="#f4f4f4" fill-opacity="1"><g transform="translate(206.36476, 52.939456)"><g><path d="M 3.09375 -5.578125 L 2.609375 -4.0625 L 5.609375 -4.0625 L 5.140625 -5.578125 C 4.953125 -6.140625 4.773438 -6.695312 4.609375 -7.25 C 4.453125 -7.800781 4.296875 -8.363281 4.140625 -8.9375 L 4.078125 -8.9375 C 3.921875 -8.363281 3.757812 -7.800781 3.59375 -7.25 C 3.4375 -6.695312 3.269531 -6.140625 3.09375 -5.578125 Z M 0.046875 0 L 3.421875 -9.96875 L 4.84375 -9.96875 L 8.21875 0 L 6.875 0 L 5.921875 -3.046875 L 2.296875 -3.046875 L 1.34375 0 Z M 0.046875 0 "/></g></g></g><g fill="#f4f4f4" fill-opacity="1"><g transform="translate(225.505426, 52.939456)"><g><path d="M 1.375 0 L 1.375 -9.96875 L 4.484375 -9.96875 C 4.992188 -9.96875 5.460938 -9.921875 5.890625 -9.828125 C 6.316406 -9.734375 6.6875 -9.570312 7 -9.34375 C 7.3125 -9.125 7.550781 -8.835938 7.71875 -8.484375 C 7.894531 -8.128906 7.984375 -7.691406 7.984375 -7.171875 C 7.984375 -6.390625 7.78125 -5.765625 7.375 -5.296875 C 6.96875 -4.835938 6.421875 -4.519531 5.734375 -4.34375 L 8.265625 0 L 6.84375 0 L 4.4375 -4.21875 L 2.625 -4.21875 L 2.625 0 Z M 2.625 -5.25 L 4.296875 -5.25 C 5.078125 -5.25 5.675781 -5.40625 6.09375 -5.71875 C 6.507812 -6.039062 6.71875 -6.523438 6.71875 -7.171875 C 6.71875 -7.835938 6.507812 -8.300781 6.09375 -8.5625 C 5.675781 -8.820312 5.078125 -8.953125 4.296875 -8.953125 L 2.625 -8.953125 Z M 2.625 -5.25 "/></g></g></g></svg>